<?xml version="1.0" encoding="UTF-8" standalone="no"?>
<svg width="23px" height="22px" viewBox="0 0 23 22" version="1.1" xmlns="http://www.w3.org/2000/svg" xmlns:xlink="http://www.w3.org/1999/xlink" xmlns:sketch="http://www.bohemiancoding.com/sketch/ns">
    <!-- Generator: Sketch 3.2.2 (9983) - http://www.bohemiancoding.com/sketch -->
    <title>Slice 1</title>
    <desc>Created with Sketch.</desc>
    <defs></defs>
    <g id="Page-1" stroke="none" stroke-width="1" fill="none" fill-rule="evenodd" sketch:type="MSPage">
        <g id="tick-outline" sketch:type="MSLayerGroup" fill="#FFFFFF">
            <path d="M10.5,21.9777778 C9.2985,21.9777778 8.1675,21.5392444 7.3185,20.7422944 L1.3185,15.1200722 C0.468,14.3245278 0,13.2647389 0,12.1388889 C0,11.0130389 0.468,9.95325 1.3185,9.1563 C3.018,7.56380556 5.982,7.56380556 7.6815,9.1563 L9.4635,10.8261 L14.067,3.06321667 C14.856,1.72512778 16.3665,0.893038889 18.003,0.893038889 C18.7635,0.893038889 19.521,1.07716667 20.187,1.42433889 C21.237,1.97250556 21.996,2.86925 22.3275,3.95152778 C22.659,5.03521111 22.518,6.17371111 21.933,7.15900556 L14.433,19.8090056 C13.752,20.95875 12.5145,21.7542944 11.124,21.9370167 C10.9155,21.9637222 10.7085,21.9777778 10.5,21.9777778 L10.5,21.9777778 Z M3.4395,11.1451611 C3.156,11.4108111 3,11.7622 3,12.1388889 C3,12.5155778 3.156,12.8669667 3.4395,13.1326167 L9.4395,18.7548389 C9.774,19.0654667 10.224,19.2186722 10.7055,19.1526111 C11.1735,19.0921722 11.5845,18.8265222 11.811,18.4442111 C11.811,18.4442111 19.0470193,6.26870603 19.311,5.79421111 C19.5749807,5.31971619 19.5525,5.08721667 19.443,4.72598889 C19.3335,4.36476111 19.0785,4.06537778 18.726,3.88265556 C18.0165,3.51158889 17.0745,3.77302222 16.6905,4.42801111 L10.155,15.4489722 L5.562,11.1451611 C5.277,10.8795111 4.902,10.7333333 4.5,10.7333333 C4.098,10.7333333 3.723,10.8795111 3.4395,11.1451611 Z" id="Shape" sketch:type="MSShapeGroup"></path>
        </g>
    </g>
</svg>